<?xml version="1.0" encoding="UTF-8" standalone="no"?>
<!DOCTYPE svg PUBLIC "-//W3C//DTD SVG 1.1//EN" "http://www.w3.org/Graphics/SVG/1.1/DTD/svg11.dtd">
<!-- Created with Vectornator (http://vectornator.io/) -->
<svg height="100%" stroke-miterlimit="10" style="fill-rule:nonzero;clip-rule:evenodd;stroke-linecap:round;stroke-linejoin:round;" version="1.1" viewBox="0 0 841.995 595.35" width="100%" xml:space="preserve" xmlns="http://www.w3.org/2000/svg" xmlns:vectornator="http://vectornator.io" xmlns:xlink="http://www.w3.org/1999/xlink">
<defs/>
<g id="Layer-1" vectornator:layerName="Layer 1">
<path d="M240.372 455.155L237.522 568.555L280.401 568.917L279.639 531.574L318.94 532.11L320.421 571.678L357.14 573.636L359.786 457.775L321.015 456.267L319.45 495.038L279.909 493.76L281.164 457.685L240.372 455.155Z" fill="#ffffff" fill-rule="nonzero" opacity="1" stroke="#3c3c3c" stroke-linecap="butt" stroke-linejoin="miter" stroke-width="2.72277"/>
<path d="M295.469 416.469C290.123 416.823 279.332 419.329 278.594 433.75C277.609 452.977 297.5 453.719 297.5 453.719C297.5 453.719 317.334 457.154 318.094 436.688C318.854 416.221 298.406 416.469 298.406 416.469C298.406 416.469 297.251 416.351 295.469 416.469Z" fill="#ffffff" fill-rule="nonzero" opacity="1" stroke="#3c3c3c" stroke-linecap="butt" stroke-linejoin="miter" stroke-width="2.72277"/>
</g>
</svg>
